<svg width="121" height="22" viewBox="0 0 121 22" fill="none" xmlns="http://www.w3.org/2000/svg">
<g clip-path="url(#clip0_2_2214)">
<mask id="mask0_2_2214" style="mask-type:luminance" maskUnits="userSpaceOnUse" x="0" y="0" width="121" height="22">
<path d="M0.454956 0.217041H120.455V21.782H0.454956V0.217041Z" fill="white"/>
</mask>
<g mask="url(#mask0_2_2214)">
<path d="M14.968 18.2361C15.168 17.1011 14.74 15.9371 13.854 15.1431C13.2015 14.5603 12.3579 14.2372 11.483 14.2351C10.9681 14.2374 10.4597 14.121 9.99699 13.8951C9.40695 13.5876 8.92015 13.1137 8.59699 12.5321C8.76976 12.0693 8.85684 11.579 8.85399 11.0851C8.85399 12.5041 10.025 13.6391 11.454 13.6391H11.511C12.94 13.6111 14.054 12.4761 14.054 11.0851C14.054 10.5751 14.14 10.0921 14.311 9.63809C14.5993 8.91409 15.0842 8.28509 15.711 7.82209C16.491 7.25886 17.4354 6.96949 18.397 6.99909C17.711 5.89209 16.768 4.92809 15.597 4.27509V4.47409C15.5974 5.35661 15.3059 6.21448 14.768 6.91409C14.6103 6.78143 14.4378 6.66734 14.254 6.57409C14.724 5.98652 14.9762 5.25446 14.968 4.50209C14.968 4.04809 14.883 3.62209 14.711 3.19709C14.4428 2.57518 14.0011 2.04372 13.4387 1.66632C12.8764 1.28893 12.2171 1.08158 11.54 1.06909H11.368C10.4996 1.06671 9.63489 1.18107 8.79699 1.40909C5.25399 2.34509 2.48299 5.04109 1.53999 8.50309C0.939993 9.21309 0.567993 10.0921 0.567993 11.0001C0.625993 5.21009 5.42499 0.500092 11.368 0.444092H11.654C17.568 0.530092 22.34 5.21109 22.397 11.0001V11.2271C22.3694 12.1462 22.0266 13.0278 21.426 13.7241C20.8497 14.3872 20.0805 14.8536 19.226 15.0581C18.9082 15.1376 18.5815 15.1756 18.254 15.1711C17.3582 15.1726 16.486 14.8839 15.768 14.3481C15.511 14.6881 15.197 14.9721 14.854 15.2561C15.426 15.9941 15.74 16.9591 15.683 17.8961C16.8267 17.2325 17.7886 16.2964 18.483 15.1711C18.74 15.1431 18.997 15.1141 19.254 15.0581C18.4115 16.5993 17.128 17.8539 15.568 18.6611C14.3191 19.2928 12.9396 19.6233 11.54 19.6261C11.2397 19.627 10.9429 19.5613 10.6711 19.4337C10.3993 19.3061 10.1591 19.1197 9.96799 18.8881C9.71099 18.5481 9.56799 18.1501 9.56799 17.7251C9.56799 17.1571 9.85399 16.6181 10.254 16.2491C10.654 16.3341 11.083 16.3911 11.54 16.3911C10.797 16.3911 10.168 16.9871 10.168 17.7251C10.168 18.4631 10.768 19.0581 11.54 19.0581H11.568C12.311 19.0581 12.94 18.4631 12.94 17.7251C12.94 16.9871 12.34 16.3911 11.568 16.3911C10.568 16.3911 9.59699 16.1081 8.73999 15.6251C8.56799 15.5121 8.36799 15.3981 8.22599 15.2851C7.87788 15.0196 7.56146 14.7149 7.28299 14.3771C7.45399 14.2631 7.59699 14.1211 7.76799 13.9791C8.13999 14.4621 8.62599 14.8871 9.19699 15.1991C9.92205 15.6039 10.7376 15.8188 11.568 15.8241C12.054 15.8241 12.511 15.9941 12.854 16.2781C13.283 16.6181 13.54 17.1581 13.54 17.7531C13.54 18.1791 13.397 18.5761 13.14 18.9171C13.7903 18.7819 14.4228 18.5722 15.025 18.2921L14.968 18.2361ZM19.425 9.58109C19.3024 8.93095 19.0911 8.30073 18.797 7.70809C17.826 7.56709 16.854 7.79409 16.111 8.36109C15.6782 8.67789 15.326 9.09205 15.0828 9.57011C14.8396 10.0482 14.7122 10.5767 14.711 11.1131C14.711 11.6241 14.597 12.1071 14.34 12.5611C14.054 13.1281 13.54 13.6111 12.968 13.9231C13.4977 14.1192 13.9834 14.4183 14.397 14.8031C14.8859 14.427 15.3024 13.9652 15.626 13.4401C16.0454 12.737 16.2627 11.9318 16.254 11.1131C16.254 10.6311 16.425 10.2051 16.74 9.86509C17.0689 9.48695 17.5288 9.24742 18.0271 9.19473C18.5255 9.14204 19.0253 9.28009 19.426 9.58109H19.425ZM19.568 11.0571C19.54 10.3761 18.94 9.80809 18.197 9.78009C17.426 9.78009 16.826 10.3761 16.826 11.0851V11.1131C16.854 11.8231 17.454 12.3901 18.196 12.3901C18.968 12.3901 19.568 11.7941 19.568 11.0851V11.0571ZM16.74 12.3621C16.597 12.8721 16.397 13.4121 16.111 13.8661C16.883 14.4331 17.854 14.6891 18.797 14.5181C19.054 14.4901 19.311 14.4051 19.568 14.3201C20.854 13.8101 21.74 12.5891 21.768 11.2271V11.0571C21.768 10.2051 21.654 9.35409 21.397 8.53109C20.454 5.09809 17.683 2.37409 14.168 1.43709C14.8342 1.98805 15.3135 2.73177 15.54 3.56609V3.59409C17.3512 4.52259 18.7774 6.05957 19.568 7.93509C19.997 8.92909 20.197 10.0071 20.197 11.1421C20.1984 11.4402 20.1293 11.7343 19.9953 12.0006C19.8613 12.2668 19.6662 12.4976 19.426 12.6741C19.0785 12.9309 18.6581 13.07 18.226 13.0711C17.9435 13.0582 17.6665 12.9887 17.4112 12.867C17.156 12.7452 16.9278 12.5735 16.74 12.3621ZM11.311 21.7821C5.39699 21.6981 0.625993 17.0161 0.567993 11.2281V11.0001C0.595854 10.0809 0.939053 9.19922 1.53999 8.50309C2.11099 7.85009 2.88299 7.39609 3.73999 7.16909C4.05399 7.08409 4.39699 7.05609 4.71099 7.05609C5.59699 7.05609 6.48299 7.34009 7.19699 7.87909C7.45399 7.53909 7.76799 7.25409 8.11099 6.97109C7.52911 6.21793 7.23546 5.28166 7.28299 4.33109C6.13934 4.99478 5.17748 5.93088 4.48299 7.05609C4.22381 7.07982 3.9661 7.11754 3.71099 7.16909C4.55349 5.62786 5.83697 4.37327 7.39699 3.56609C8.64589 2.93431 10.0254 2.60382 11.425 2.60109C12.055 2.60109 12.625 2.88509 12.997 3.33909C13.254 3.67909 13.397 4.07609 13.397 4.50209C13.397 5.09809 13.111 5.60909 12.711 5.97809C12.2883 5.88725 11.8574 5.83967 11.425 5.83609C12.168 5.83609 12.797 5.24009 12.797 4.50209C12.797 3.76409 12.197 3.16809 11.425 3.16809H11.397C10.654 3.16809 10.025 3.76409 10.025 4.50209C10.025 5.24009 10.625 5.83609 11.397 5.83609C12.397 5.83609 13.368 6.11909 14.226 6.60209C14.396 6.71509 14.596 6.82909 14.74 6.94209C15.083 7.22609 15.397 7.51009 15.683 7.85009C15.511 7.96409 15.368 8.10609 15.197 8.24809C14.81 7.74712 14.3235 7.33173 13.768 7.02809C13.0429 6.62332 12.2274 6.40834 11.397 6.40309C10.9304 6.39533 10.479 6.23597 10.111 5.94909C9.89756 5.76681 9.72584 5.54075 9.60747 5.28625C9.48911 5.03175 9.42688 4.75476 9.42499 4.47409C9.42499 4.02009 9.59699 3.62209 9.82499 3.31009C9.16541 3.44489 8.52329 3.65424 7.91099 3.93409C7.71099 5.07009 8.13999 6.23309 9.02499 7.02709C9.67772 7.61013 10.5218 7.93324 11.397 7.93509C11.911 7.93509 12.425 8.04909 12.883 8.27509C13.483 8.58809 13.968 9.07009 14.283 9.63809C14.111 10.0921 13.997 10.5741 14.025 11.0851C14.025 9.66609 12.855 8.53109 11.425 8.53109H11.397C9.96799 8.56009 8.85399 9.69509 8.85399 11.0851C8.85399 11.5951 8.76799 12.0781 8.59699 12.5321C8.30873 13.2561 7.82381 13.8851 7.19699 14.3481C6.41705 14.9114 5.47263 15.2008 4.51099 15.1711C5.19699 16.2781 6.13999 17.2431 7.31099 17.8951C7.28299 16.9591 7.53999 16.0221 8.13999 15.2851C8.31099 15.4271 8.48299 15.5401 8.65399 15.6251C8.18401 16.2127 7.93175 16.9447 7.93999 17.6971C7.93999 18.1511 8.02499 18.5771 8.19699 19.0021C8.46517 19.624 8.90688 20.1555 9.46925 20.5329C10.0316 20.9103 10.6908 21.1176 11.368 21.1301H11.54C12.4083 21.1321 13.273 21.0178 14.111 20.7901C17.654 19.8531 20.425 17.1571 21.368 13.6961C21.968 12.9861 22.34 12.1061 22.34 11.1991C22.283 16.9871 17.483 21.6971 11.54 21.7541H11.426L11.311 21.7831V21.7821ZM8.76799 20.8181C8.10233 20.2673 7.62342 19.5239 7.39699 18.6901V18.6611C5.58539 17.7328 4.15886 16.1958 3.36799 14.3201C2.94629 13.3038 2.73274 12.2133 2.73999 11.1131C2.73999 10.4891 3.02499 9.95009 3.51099 9.58109C3.85635 9.32021 4.27819 9.18065 4.71099 9.18409C5.31099 9.18409 5.85399 9.46809 6.19699 9.86409C6.32927 9.33427 6.541 8.82753 6.82499 8.36109C6.05499 7.79409 5.08299 7.53809 4.13999 7.70809C3.85399 7.73709 3.62599 7.82209 3.36799 7.90709C2.08299 8.41709 1.19699 9.63709 1.16799 11.0001V11.1701C1.16799 12.0211 1.28299 12.8731 1.53999 13.6961C2.02306 15.4084 2.94352 16.9655 4.21084 18.2143C5.47817 19.463 7.04871 20.3604 8.76799 20.8181ZM4.16799 14.5181C5.13999 14.6601 6.11099 14.4331 6.85399 13.8661C7.28694 13.5492 7.63926 13.1349 7.88246 12.6566C8.12567 12.1784 8.25294 11.6496 8.25399 11.1131C8.25399 10.6031 8.36799 10.1201 8.62599 9.66609C8.91099 9.09909 9.42599 8.61609 9.99599 8.30409H9.96799C9.43892 8.10718 8.95372 7.80818 8.53999 7.42409C8.05061 7.80035 7.63382 8.26255 7.30999 8.78809C6.89076 9.49093 6.67346 10.2958 6.68199 11.1141C6.68199 11.5971 6.50999 12.0231 6.19599 12.3631C5.86713 12.7412 5.40722 12.9808 4.90886 13.0335C4.41049 13.0861 3.91067 12.9481 3.50999 12.6471C3.65299 13.2991 3.88199 13.9241 4.16699 14.5191L4.16799 14.5181ZM3.39699 11.1701C3.42599 11.8511 4.02599 12.4471 4.76799 12.4471C5.53999 12.4471 6.13999 11.8511 6.13999 11.1421V11.1131C6.11099 10.4041 5.51099 9.83709 4.76799 9.83709C3.99699 9.83709 3.39699 10.4321 3.39699 11.1701C3.39699 11.1421 3.39699 11.1421 3.39699 11.1701ZM31.14 5.52409H34.14L36.94 12.8731H36.968L39.711 5.52309H42.74V15.8801H40.854V7.56709H40.825L37.568 15.8801H36.225L32.997 7.56709H32.968V15.8801H31.14V5.52409ZM47.968 5.52409H55.083V7.14009H49.883V9.78009H54.825V11.3121H49.883V14.2351H55.368V15.8811H47.968V5.52409ZM63.54 10.0071C63.825 10.0071 64.083 9.97809 64.368 9.95009C64.626 9.92209 64.854 9.83709 65.111 9.75109C65.34 9.63809 65.511 9.46809 65.654 9.29709C65.797 9.09909 65.883 8.84309 65.883 8.53109C65.883 8.24809 65.826 8.02109 65.683 7.85109C65.54 7.68009 65.397 7.51009 65.197 7.42509C64.968 7.31109 64.768 7.22609 64.511 7.22609C64.2555 7.19087 63.9979 7.17184 63.74 7.16909H61.997V10.0921C61.997 10.0071 63.54 10.0071 63.54 10.0071ZM60.083 5.52409H63.825C64.311 5.52409 64.825 5.58009 65.311 5.66509C65.768 5.75109 66.197 5.94909 66.568 6.17609C66.94 6.40309 67.254 6.74409 67.454 7.11309C67.683 7.51009 67.797 7.96309 67.797 8.50309C67.797 9.24109 67.568 9.86509 67.14 10.3471C66.711 10.8301 66.111 11.1421 65.34 11.3121L68.197 15.9091H65.91L63.424 11.5111H62.024V15.9091H60.11V5.52409H60.083ZM80.225 7.96409C79.9437 7.59736 79.569 7.31309 79.14 7.14109C78.7124 6.97206 78.2567 6.88554 77.797 6.88609C77.283 6.88609 76.768 6.97109 76.283 7.16909C75.8419 7.36353 75.4436 7.64322 75.111 7.99209C74.768 8.33209 74.511 8.73009 74.34 9.18409C74.168 9.66609 74.054 10.1771 74.083 10.6591C74.083 11.2271 74.168 11.7381 74.34 12.1921C74.511 12.6461 74.768 13.0721 75.083 13.4121C75.397 13.7521 75.768 14.0081 76.225 14.2061C76.655 14.4051 77.168 14.4901 77.711 14.4901C78.2448 14.4987 78.7732 14.3823 79.254 14.1501C79.683 13.9511 80.054 13.6391 80.34 13.2701L81.883 14.3201C81.4137 14.8941 80.8169 15.3505 80.14 15.6531C79.454 15.9661 78.654 16.1361 77.711 16.1361C76.9223 16.1408 76.139 16.0064 75.397 15.7391C74.7233 15.4881 74.1028 15.1126 73.568 14.6321C73.054 14.1221 72.654 13.5541 72.397 12.9021C72.107 12.2003 71.9611 11.4474 71.968 10.6881C71.968 9.86509 72.111 9.09809 72.397 8.44609C72.6692 7.79144 73.0896 7.20885 73.625 6.74409C74.1584 6.26795 74.7802 5.90133 75.455 5.66509C76.5338 5.27563 77.6963 5.178 78.825 5.38209C79.197 5.43809 79.568 5.52409 79.911 5.66509C80.254 5.80709 80.568 5.94909 80.883 6.14809C81.168 6.34609 81.454 6.57309 81.654 6.82809C81.683 6.85809 80.225 7.96409 80.225 7.96409ZM94.455 12.0781C94.455 12.7031 94.34 13.2701 94.111 13.7811C93.911 14.2631 93.597 14.7171 93.197 15.0581C92.797 15.3981 92.34 15.6821 91.826 15.8801C91.275 16.0731 90.6948 16.1692 90.111 16.1641C89.5275 16.1691 88.9477 16.073 88.397 15.8801C87.8892 15.7008 87.4226 15.4213 87.025 15.0581C86.6397 14.6963 86.3292 14.2624 86.111 13.7811C85.883 13.2701 85.797 12.7311 85.797 12.0781V5.52409H87.711V11.9941C87.711 12.3051 87.74 12.5891 87.826 12.9011C87.911 13.1851 88.054 13.4691 88.226 13.6961C88.4223 13.9439 88.6773 14.1388 88.968 14.2631C89.254 14.4051 89.654 14.4621 90.111 14.4621C90.568 14.4621 90.94 14.3771 91.254 14.2631C91.54 14.1211 91.797 13.9231 91.997 13.6961C92.168 13.4691 92.311 13.1851 92.397 12.9011C92.483 12.6171 92.511 12.3051 92.511 11.9931V5.52309H94.426C94.454 5.52309 94.455 12.0781 94.455 12.0781ZM103.054 10.0071C103.34 10.0071 103.597 9.97809 103.883 9.95009C104.168 9.92209 104.397 9.83709 104.626 9.75109C104.854 9.63809 105.026 9.46809 105.168 9.29709C105.311 9.09909 105.397 8.84309 105.397 8.53109C105.397 8.24809 105.34 8.02109 105.197 7.85109C105.078 7.66646 104.91 7.51887 104.711 7.42509C104.483 7.31109 104.283 7.22609 104.026 7.22609C103.77 7.19087 103.512 7.17183 103.254 7.16909H101.511V10.0921C101.483 10.0071 103.054 10.0071 103.054 10.0071ZM99.568 5.52409H103.311C103.797 5.52409 104.311 5.58009 104.797 5.66509C105.254 5.75109 105.683 5.94909 106.054 6.17609C106.426 6.40309 106.711 6.71609 106.94 7.11309C107.168 7.51009 107.283 7.96309 107.283 8.50309C107.283 9.24109 107.054 9.86509 106.626 10.3471C106.197 10.8301 105.597 11.1421 104.826 11.3121L107.683 15.9091H105.397L102.911 11.5111H101.511V15.9091H99.597C99.568 15.8801 99.568 5.52409 99.568 5.52409ZM114.483 11.3971L110.454 5.55209H112.797L115.483 9.89309L118.226 5.55209H120.454L116.426 11.3971V15.8801H114.511V11.3971H114.483Z" fill="#121212"/>
</g>
</g>
<defs>
<clipPath id="clip0_2_2214">
<rect width="121" height="22" fill="white"/>
</clipPath>
</defs>
</svg>
