<svg width="121" height="34" viewBox="0 0 121 34" fill="none" xmlns="http://www.w3.org/2000/svg">
<mask id="mask0_2_2205" style="mask-type:luminance" maskUnits="userSpaceOnUse" x="0" y="0" width="121" height="34">
<path d="M0.454956 0.729004H120.455V33.271H0.454956V0.729004Z" fill="white"/>
</mask>
<g mask="url(#mask0_2_2205)">
<path d="M28.578 22.945L28.562 22.891L39.21 13.153V8.46003H22.126V13.152H32.331L32.347 13.198L21.803 22.945V27.637H39.382V22.945H28.578ZM49.869 8.01303C47.899 8.01303 46.292 8.31003 45.051 8.90403C43.8949 9.42127 42.9209 10.2738 42.255 11.351C41.6185 12.435 41.2187 13.6415 41.082 14.891L46.266 15.62C46.454 14.516 46.829 13.734 47.391 13.273C48.0308 12.7912 48.8188 12.5478 49.619 12.585C50.671 12.585 51.434 12.865 51.909 13.428C52.379 13.99 52.617 14.768 52.617 15.794V16.305H47.633C45.096 16.305 43.273 16.867 42.165 17.991C41.057 19.115 40.504 20.598 40.505 22.441C40.505 24.33 41.059 25.735 42.165 26.656C43.272 27.578 44.663 28.036 46.339 28.03C48.419 28.03 50.019 27.316 51.138 25.886C51.7987 25.0079 52.2706 24.0024 52.524 22.933H52.713L53.427 27.625H58.124V15.743C58.124 13.287 57.476 11.385 56.181 10.036C54.885 8.68803 52.781 8.01303 49.869 8.01303ZM51.512 22.661C50.766 23.281 49.791 23.591 48.575 23.591C47.574 23.591 46.878 23.416 46.488 23.065C46.2984 22.8992 46.1476 22.6938 46.0462 22.4633C45.9447 22.2328 45.8952 21.9828 45.901 21.731C45.8896 21.4933 45.9268 21.2558 46.0104 21.0329C46.0939 20.8101 46.2221 20.6066 46.387 20.435C46.5652 20.2679 46.7756 20.1387 47.0052 20.0552C47.2348 19.9717 47.479 19.9356 47.723 19.949H52.626V20.272C52.6362 20.729 52.5411 21.1823 52.3479 21.5966C52.1547 22.0109 51.8687 22.3751 51.512 22.661ZM86.524 8.46003H80.974V27.64H86.524V8.46003ZM119.285 8.46003C117.718 8.46003 116.482 9.01303 115.578 10.118C114.93 10.912 114.436 12.086 114.099 13.638H113.936L113.21 8.46003H108.471V27.637H114.02V17.803C114.02 16.563 114.311 15.612 114.892 14.951C115.473 14.289 116.546 13.959 118.11 13.959H120.216V8.46003H119.285ZM102.971 9.08703C101.676 8.31703 100.042 7.93303 98.069 7.93503C94.964 7.93503 92.534 8.81803 90.779 10.585C89.023 12.351 88.146 14.786 88.146 17.89C88.1012 19.7666 88.5112 21.6262 89.341 23.31C90.1013 24.8109 91.2847 26.0562 92.745 26.892C94.215 27.742 95.963 28.166 97.99 28.168C99.743 28.168 101.208 27.898 102.383 27.359C103.488 26.8748 104.451 26.1152 105.179 25.153C105.872 24.2092 106.387 23.1468 106.698 22.018L101.917 20.68C101.715 21.4143 101.328 22.0841 100.792 22.625C100.251 23.164 99.347 23.434 98.077 23.434C96.568 23.434 95.443 23.002 94.702 22.138C94.165 21.515 93.828 20.624 93.678 19.469H106.771C106.825 18.929 106.853 18.477 106.853 18.112V16.918C106.884 15.3138 106.553 13.7232 105.883 12.265C105.255 10.9364 104.24 9.82862 102.971 9.08703ZM97.909 12.507C100.159 12.507 101.435 13.613 101.737 15.825H93.777C93.9031 15.0868 94.2092 14.391 94.668 13.799C95.398 12.935 96.479 12.505 97.909 12.507ZM83.81 0.730027C83.3925 0.716017 82.9764 0.785982 82.5865 0.935771C82.1966 1.08556 81.8407 1.31212 81.54 1.60203C81.2441 1.89454 81.0121 2.24528 80.8587 2.63206C80.7054 3.01883 80.6339 3.43323 80.649 3.84903C80.6259 4.48015 80.7997 5.10283 81.1462 5.63083C81.4927 6.15883 81.9948 6.56602 82.583 6.79603C82.973 6.94903 83.391 7.02003 83.81 7.00503C84.2263 7.02065 84.6413 6.94951 85.0286 6.79612C85.416 6.64273 85.7672 6.41045 86.06 6.11403C86.3503 5.81474 86.5769 5.45975 86.7263 5.07047C86.8756 4.68119 86.9446 4.26568 86.929 3.84903C86.9484 3.43486 86.881 3.02119 86.7312 2.63458C86.5814 2.24797 86.3524 1.89695 86.059 1.60403C85.7655 1.311 85.4143 1.08231 85.0276 0.932519C84.6409 0.782731 84.2272 0.715131 83.813 0.734027L83.81 0.730027ZM72.347 7.93503C70.457 7.93503 68.937 8.52803 67.79 9.71403C66.94 10.592 66.317 11.904 65.92 13.647H65.742L65.017 8.46903H60.277V33.15H65.827V22.984H66.029C66.199 23.662 66.436 24.321 66.739 24.951C67.2085 25.9774 67.9779 26.8376 68.946 27.418C69.9506 27.9658 71.0821 28.2383 72.226 28.208C74.549 28.208 76.318 27.304 77.533 25.496C78.7479 23.689 79.356 21.166 79.356 17.929C79.356 14.803 78.768 12.356 77.592 10.588C76.417 8.81903 74.668 7.93503 72.347 7.93503ZM72.909 21.832C72.2619 22.769 71.249 23.237 69.871 23.237C69.303 23.263 68.737 23.1535 68.2197 22.9176C67.7024 22.6816 67.2487 22.326 66.896 21.88C66.177 20.979 65.819 19.746 65.821 18.18V17.814C65.821 16.224 66.179 15.006 66.896 14.162C67.612 13.317 68.604 12.899 69.871 12.908C71.274 12.908 72.293 13.353 72.929 14.243C73.564 15.133 73.882 16.373 73.882 17.966C73.886 19.612 73.563 20.901 72.915 21.832H72.909ZM19.654 22.945H0.454956V27.643H19.655V22.945H19.654Z" fill="#121212"/>
</g>
</svg>
