<svg width="81" height="36" viewBox="0 0 81 36" fill="none" xmlns="http://www.w3.org/2000/svg">
<mask id="mask0_2_2175" style="mask-type:luminance" maskUnits="userSpaceOnUse" x="0" y="0" width="81" height="36">
<path d="M0.454956 0.481934H80.455V35.5179H0.454956V0.481934Z" fill="white"/>
</mask>
<g mask="url(#mask0_2_2175)">
<path d="M47.412 30.8269V26.2999C47.299 26.4239 47.216 26.4939 47.158 26.5799C46.325 27.8029 45.368 28.8999 44.097 29.6919C43.3451 30.1643 42.5075 30.4837 41.632 30.6319C41.334 30.6819 40.654 30.7239 40.347 30.7189C39.473 30.7039 38.956 30.7259 38.097 30.4739C36.08 29.8839 34.595 28.6409 33.619 26.7909C32.876 25.3839 32.547 23.8709 32.456 22.2899C32.354 20.4899 32.541 18.7329 33.18 17.0409C34.075 14.6739 35.645 12.9109 37.921 11.7689C39.519 10.9679 41.21 10.5809 42.98 10.4769C44.225 10.4029 45.456 10.4879 46.669 10.8009C46.806 10.8349 46.943 10.8789 47.109 10.9269C47.109 10.7719 47.116 10.6439 47.109 10.5139C47.056 9.52988 47.021 8.54688 46.936 7.56488C46.79 5.86888 45.806 4.74188 44.382 3.93188C44.297 3.88488 44.214 3.83488 44.053 3.73888L52.401 1.37388C52.401 1.69588 52.408 1.97988 52.401 2.26288C52.366 3.53688 52.305 4.81188 52.292 6.08688C52.253 10.1839 52.205 14.2789 52.214 18.3769C52.218 20.4469 52.325 22.5159 52.418 24.5849C52.46 25.4859 52.59 26.3829 52.897 27.2429C53.242 28.2129 53.842 28.9059 54.979 29.6009C52.495 29.9849 49.84 30.4499 47.414 30.8239M47.205 18.9759C47.205 17.1759 47.203 15.3779 47.21 13.5779C47.21 13.3909 47.149 13.3019 46.986 13.2019C46.246 12.7479 45.438 12.5119 44.593 12.3769C43.413 12.1879 42.282 12.3249 41.243 12.9439C39.914 13.7339 39.141 14.9539 38.664 16.3839C38.11 18.0469 37.988 19.7599 38.13 21.4969C38.204 22.4089 38.373 23.3059 38.723 24.1569C39.436 25.8869 40.732 26.8409 42.59 27.0409C44.151 27.2109 45.627 26.8649 47.069 26.3049C47.259 26.2309 47.289 26.1009 47.279 25.9199C47.249 25.0999 47.212 24.2769 47.205 23.4539C47.195 21.9619 47.203 20.4699 47.201 18.9779L47.205 18.9759ZM0.457981 26.0499C0.509981 24.5669 1.30598 23.5399 1.61798 23.1809C2.52498 22.1429 3.72498 21.5809 5.00798 21.1769C6.97498 20.5579 8.99698 20.4069 11.044 20.5579C11.307 20.5779 11.394 20.5019 11.401 20.2369C11.418 19.4139 11.501 18.5909 11.484 17.7699C11.457 16.4999 10.97 15.4489 9.83598 14.7779C9.23398 14.4219 8.56198 14.2719 7.87298 14.2069C5.77098 14.0129 3.84898 14.6069 2.00798 15.5529C1.96198 15.5769 1.91398 15.5989 1.80098 15.6549C1.84698 15.5119 1.86898 15.4229 1.90098 15.3379C2.67698 13.3289 4.07098 11.9089 6.05998 11.1179C8.39898 10.1879 10.762 10.1719 13.073 11.2299C15.136 12.1739 16.236 13.8569 16.466 16.0739C16.566 17.0379 16.516 18.0239 16.449 18.9939C16.314 21.0009 16.244 23.0049 16.377 25.0119C16.481 26.6189 17.236 27.7799 18.779 28.3689C18.989 28.4489 19.201 28.5339 19.409 28.6159L19.644 28.7139C19.457 28.8729 19.307 29.0119 19.146 29.1349C18.116 29.9279 16.964 30.4689 15.675 30.6249C15.0462 30.7036 14.4087 30.6786 13.788 30.5509C12.714 30.3209 12.094 29.5129 11.718 28.5409C11.51 27.9999 11.403 27.4199 11.244 26.8339C11.199 26.8989 11.136 26.9769 11.09 27.0619C10.101 28.8549 8.65098 30.1249 6.63998 30.5469C5.45098 30.7969 4.26398 30.7829 3.17498 30.3099C2.76449 30.1328 2.38211 29.8966 2.03998 29.6089C1.40904 29.0655 0.936712 28.3617 0.672981 27.5719C0.512545 27.0818 0.439105 26.5673 0.455981 26.0519L0.457981 26.0499ZM11.327 23.6609C11.327 23.6609 11.337 21.8779 11.34 20.9749C11.34 20.8249 11.34 20.6949 11.13 20.7339C9.83798 20.9729 8.55298 21.2419 7.39698 21.8959C6.25298 22.5409 5.50098 23.4459 5.56198 24.8529C5.60498 25.8719 6.07898 26.5709 7.02698 26.9159C8.43998 27.4309 9.80498 27.1359 11.147 26.6189C11.212 26.5949 11.275 26.4729 11.277 26.3949C11.286 25.4919 11.329 24.5649 11.329 23.6609H11.327ZM27 0.567885C28.555 0.552885 29.809 2.25888 29.52 3.94388C29.241 5.57688 27.611 6.95588 25.953 6.91388C24.75 6.88388 23.785 6.38888 23.223 5.30088C22.668 4.22888 22.807 3.16888 23.455 2.16788C23.931 1.43188 24.607 0.949885 25.425 0.669885C25.672 0.584885 25.952 0.593885 26.235 0.556885M55.678 12.7899C58.399 12.0049 61.091 11.2249 63.81 10.4409L63.684 14.6759C63.724 14.6969 63.762 14.7189 63.799 14.7409C63.851 14.6579 63.893 14.5689 63.958 14.4979C65.036 13.3099 66.223 12.2499 67.649 11.5009C69.529 10.5149 71.516 10.1569 73.609 10.6979C74.836 11.0149 75.758 11.7399 76.405 12.8259C77.031 13.8719 77.303 15.0269 77.451 16.2169C77.645 17.7659 77.608 19.3199 77.605 20.8769C77.603 22.6749 77.595 24.4749 77.885 26.2629C78.134 27.7849 78.795 29.0509 80.045 29.9839C80.114 30.0359 80.195 30.0779 80.242 30.1709C76.545 30.1539 72.879 29.9929 69.197 30.2059C69.49 29.9459 69.786 29.6859 70.077 29.4239C70.86 28.7229 71.553 27.9559 71.912 26.9419C72.208 26.1019 72.369 25.2269 72.405 24.3409C72.458 23.0309 72.48 21.7199 72.466 20.4079C72.4607 19.322 72.3169 18.2413 72.038 17.1919C71.84 16.4609 71.525 15.7899 70.993 15.2269C70.41 14.6129 69.68 14.3469 68.867 14.2649C67.247 14.1049 65.677 14.4089 64.123 14.8209C64.032 14.8449 63.93 14.9769 63.908 15.0749C63.867 15.2579 63.875 15.4529 63.875 15.6419C63.875 17.4879 63.86 19.3329 63.88 21.1789C63.893 22.5539 63.934 23.9259 63.99 25.2989C64.023 26.0759 64.156 26.8419 64.443 27.5739C64.83 28.5549 65.564 29.2439 66.384 29.8609C66.527 29.9689 66.677 30.0689 66.821 30.2059C63.2042 30.0575 59.5825 30.0719 55.967 30.2489C56.121 30.1039 56.219 30.0149 56.31 29.9209C56.728 29.4939 57.169 29.0899 57.552 28.6309C58.292 27.7429 58.608 26.6619 58.654 25.5409C58.732 23.6369 58.73 21.7279 58.732 19.8219C58.732 19.0099 58.68 18.1959 58.617 17.3859C58.489 15.7329 57.817 14.3629 56.45 13.3729C56.195 13.1899 55.952 12.9929 55.686 12.7869L55.678 12.7909V12.7899ZM31.415 30.2039H20.138C20.253 30.1039 20.328 30.0359 20.407 29.9689C21.259 29.2499 22.014 28.4509 22.411 27.3829C22.701 26.6029 22.82 25.7849 22.841 24.9629C22.887 23.2289 22.911 21.4939 22.896 19.7589C22.886 18.5319 22.829 17.3029 22.49 16.1069C22.224 15.1789 21.707 14.4259 20.994 13.7969C20.616 13.4619 20.227 13.1379 19.822 12.7909L28.155 10.4369C28.155 10.5799 28.159 10.6649 28.155 10.7499C28.126 11.2729 28.076 11.7959 28.07 12.3199C28.055 13.5489 28.063 14.7779 28.055 16.0069C28.044 17.2729 27.998 18.5389 28.009 19.8019C28.022 21.3919 28.05 22.9839 28.131 24.5729C28.168 25.2979 28.309 26.0259 28.47 26.7359C28.735 27.9079 29.44 28.7989 30.407 29.4889C30.752 29.7369 31.098 29.9789 31.417 30.2039H31.415Z" fill="#121212"/>
</g>
</svg>
