<svg width="121" height="22" viewBox="0 0 121 22" fill="none" xmlns="http://www.w3.org/2000/svg">
<g clip-path="url(#clip0_2_2223)">
<mask id="mask0_2_2223" style="mask-type:luminance" maskUnits="userSpaceOnUse" x="0" y="0" width="121" height="22">
<path d="M0.454956 0.225098H120.455V21.7741H0.454956V0.225098Z" fill="white"/>
</mask>
<g mask="url(#mask0_2_2223)">
<path d="M9.78602 16.0601L4.46802 10.8081C4.02968 10.3826 3.44286 10.1447 2.83202 10.1447C2.22117 10.1447 1.63435 10.3826 1.19602 10.8081C0.983159 11.0199 0.814253 11.2718 0.698999 11.5491C0.583745 11.8264 0.524414 12.1238 0.524414 12.4241C0.524414 12.7244 0.583745 13.0218 0.698999 13.2991C0.814253 13.5764 0.983159 13.8282 1.19602 14.0401L8.17002 20.9281C8.606 21.358 9.1937 21.599 9.80602 21.599C10.4183 21.599 11.006 21.358 11.442 20.9281L14.228 18.1581L10.878 14.9831L9.78602 16.0601ZM19.625 16.0601L17.989 14.4441L28.216 4.32407C29.112 3.43907 29.132 1.97607 28.216 1.09107C27.3 0.206074 25.839 0.187074 24.943 1.09107L19.625 6.34407L14.287 1.07207C13.8487 0.646642 13.2619 0.408691 12.651 0.408691C12.0402 0.408691 11.4534 0.646642 11.015 1.07207C10.8022 1.28393 10.6333 1.53575 10.518 1.81307C10.4027 2.0904 10.3434 2.38776 10.3434 2.68807C10.3434 2.98839 10.4027 3.28575 10.518 3.56308C10.6333 3.8404 10.8022 4.09222 11.015 4.30407L16.333 9.55707L14.697 11.1731L9.37802 5.92107C8.93968 5.49564 8.35286 5.25769 7.74202 5.25769C7.13117 5.25769 6.54435 5.49564 6.10602 5.92107C5.89316 6.13293 5.72425 6.38475 5.609 6.66207C5.49374 6.9394 5.43441 7.23676 5.43441 7.53707C5.43441 7.83739 5.49374 8.13475 5.609 8.41208C5.72425 8.6894 5.89316 8.94122 6.10602 9.15307L17.969 20.8901C18.405 21.3203 18.993 21.5615 19.6055 21.5615C20.2181 21.5615 20.806 21.3203 21.242 20.8901L24.047 18.1191L20.755 14.8871L19.625 16.0601Z" fill="#121212"/>
<path d="M34.76 10.788L29.443 16.041L27.806 14.425L33.124 9.17204C33.3368 8.96018 33.5057 8.70836 33.621 8.43104C33.7362 8.15372 33.7956 7.85636 33.7956 7.55604C33.7956 7.25572 33.7362 6.95836 33.621 6.68104C33.5057 6.40372 33.3368 6.15189 33.124 5.94004C32.6856 5.51461 32.0988 5.27666 31.488 5.27666C30.8771 5.27666 30.2903 5.51461 29.852 5.94004L24.533 11.192L23.365 10.038L20.111 13.308L27.806 20.908C28.242 21.3383 28.8299 21.5795 29.4425 21.5795C30.055 21.5795 30.6429 21.3383 31.079 20.908L38.053 14.021C38.263 13.8052 38.4279 13.5496 38.5379 13.2692C38.6479 12.9888 38.7008 12.6893 38.6935 12.3881C38.6863 12.087 38.619 11.7904 38.4956 11.5156C38.3722 11.2409 38.1952 10.9935 37.975 10.788C37.5393 10.3801 36.9648 10.1531 36.368 10.1531C35.7711 10.1531 35.1966 10.3801 34.761 10.788H34.76ZM88.684 17.003C87.612 17.003 86.892 16.33 86.892 15.175V10.153H90.359V7.86304H86.892V4.05504H84.164V7.86504H82.002V10.155H84.164V15.176C84.164 17.928 85.82 19.409 88.45 19.409C89.3472 19.4308 90.2322 19.1975 91.002 18.736L90.282 16.619C89.7926 16.8861 89.2413 17.0179 88.684 17.003ZM120.454 13.424C120.454 10.25 118.72 7.65204 115.194 7.65204C111.902 7.65204 109.564 10.153 109.564 13.559C109.564 16.965 111.844 19.427 115.389 19.427C117.513 19.427 119.013 18.735 120.142 17.387L118.253 15.848C117.707 16.56 116.753 17.157 115.409 17.157C113.5 17.157 112.409 16.176 112.331 14.367H120.454V13.424ZM112.35 12.424C112.448 10.846 113.538 9.78804 115.155 9.78804C116.772 9.78804 117.707 10.865 117.785 12.424H112.35ZM50.696 2.66904H47.852V19.197H58.293V16.695H50.696V2.67004V2.66904ZM103.858 17.06C101.832 17.06 100.721 15.502 100.721 13.52C100.721 11.539 101.793 9.98004 103.838 9.98004C105.104 9.98004 105.962 10.692 106.487 11.596L108.475 10.115C107.987 9.32582 107.3 8.67911 106.482 8.24004C105.665 7.80098 104.746 7.58506 103.819 7.61404C100.293 7.61404 97.936 10.096 97.936 13.501C97.936 16.926 100.312 19.389 103.838 19.389C105.747 19.446 107.539 18.504 108.533 16.887L106.565 15.387C106 16.329 105.104 17.061 103.858 17.061V17.06ZM94.195 2.57304C93.7623 2.5621 93.3427 2.72106 93.0258 3.01583C92.709 3.31061 92.5202 3.71776 92.5 4.15004V4.24704C92.5 5.17004 93.26 5.92004 94.195 5.92004C95.13 5.92004 95.89 5.17004 95.89 4.24704C95.91 3.34204 95.188 2.61104 94.292 2.57304H94.195ZM79.274 17.003C78.202 17.003 77.481 16.33 77.481 15.175V10.153H80.949V7.86304H77.48V4.05504H74.753V7.86504H72.591V10.155H74.753V15.176C74.753 17.928 76.409 19.409 79.039 19.409C79.9362 19.4308 80.8212 19.1975 81.591 18.736L80.87 16.619C80.3809 16.886 79.8299 17.0188 79.273 17.004L79.274 17.003ZM95.54 7.86404H92.812V19.196H95.54V7.86404ZM67.975 9.19104C67.332 8.34504 66.183 7.63304 64.449 7.63304C61.332 7.63304 59.209 10.115 59.209 13.52C59.209 16.945 61.332 19.408 64.449 19.408C66.183 19.408 67.352 18.715 67.975 17.849L68.112 19.177H70.566V7.84404H68.112L67.975 9.19104ZM67.839 15.348C67.216 16.31 66.397 17.041 65.034 17.041C63.261 17.041 61.975 15.675 61.975 13.54C61.975 11.404 63.242 10.038 65.034 10.038C66.397 10.038 67.215 10.75 67.839 11.731V15.348Z" fill="#121212"/>
</g>
</g>
<defs>
<clipPath id="clip0_2_2223">
<rect width="121" height="22" fill="white"/>
</clipPath>
</defs>
</svg>
