<svg width="121" height="24" viewBox="0 0 121 24" fill="none" xmlns="http://www.w3.org/2000/svg">
<g clip-path="url(#clip0_2_2343)">
<path d="M22.023 9.67898H25.365C25.724 9.67998 26.015 9.97098 26.015 10.33V13.675C26.015 14.034 25.723 14.326 25.364 14.326H22.017C21.658 14.327 21.368 14.617 21.368 14.977V22.969C21.368 23.328 21.076 23.62 20.717 23.62H17.37H16.071H12.725H12.075V23.614C5.65702 23.614 0.455017 18.413 0.455017 11.997C0.455017 5.58198 5.65702 0.380981 12.075 0.380981V0.385981H16.075C16.434 0.387981 16.723 0.678981 16.723 1.03698V4.38298V4.38498C16.724 4.74298 17.015 5.03298 17.374 5.03298H20.721C21.075 5.03298 21.363 4.74998 21.371 4.39798V4.38998V4.38398V4.38098V1.03498C21.372 0.677981 21.662 0.387981 22.02 0.385981H25.372C25.731 0.387981 26.02 0.678981 26.02 1.03698V4.38298C26.02 4.74198 25.729 5.03298 25.37 5.03298H22.023H22.022C21.663 5.03298 21.372 5.32498 21.372 5.68298V9.02798C21.372 9.38698 21.664 9.67898 22.023 9.67898ZM12.728 9.67898H16.075C16.434 9.67898 16.726 9.38698 16.726 9.02798V5.68298C16.726 5.32398 16.435 5.03198 16.076 5.03198H12.727C12.369 5.03198 12.078 5.32298 12.078 5.68198V9.02898C12.078 9.38898 12.369 9.67898 12.728 9.67898ZM20.723 14.326C21.082 14.326 21.373 14.034 21.373 13.675V10.33C21.373 9.97098 21.083 9.67898 20.724 9.67898H17.375C17.016 9.67998 16.725 9.97098 16.725 10.33V13.675C16.725 14.034 17.017 14.326 17.376 14.326H20.723ZM117.008 8.97798V15.151C117.008 15.943 117.289 16.199 118.312 16.199H120.455V18.854H118.079C115.238 18.854 114.119 17.759 114.119 15.29V8.97798V6.50898V3.52698H117.007V6.50898H120.455V8.97798H117.008ZM41.787 6.15898C37.968 6.15898 35.056 8.95398 35.056 12.68C35.056 16.431 37.968 19.201 41.787 19.201C44.885 19.201 47.378 17.478 48.076 14.823L45.375 14.078C44.839 15.778 43.582 16.664 41.787 16.664C39.575 16.664 37.945 15.056 37.945 12.68C37.945 10.304 39.575 8.69698 41.787 8.69698C43.582 8.69698 44.862 9.65198 45.375 11.282L48.076 10.537C47.378 7.88198 44.885 6.15898 41.787 6.15898ZM49.846 6.50898V13.683H49.848C49.848 17.131 51.945 19.204 55.369 19.204C57.208 19.204 58.699 18.622 59.701 17.573H59.747V18.854H62.542V6.50898H59.653V13.217C59.653 15.197 58.28 16.595 56.113 16.595C53.945 16.595 52.735 15.36 52.735 13.217V6.50898H49.846ZM65.102 6.50998H67.85V7.69798H67.896C68.735 6.81198 69.923 6.27598 71.367 6.27598C72.066 6.27598 72.672 6.39298 73.347 6.60298L72.719 9.23498C72.067 9.04898 71.624 8.97798 70.972 8.97798C69.178 8.97798 67.991 10.189 67.991 12.635V18.854H65.102V6.50998ZM77.61 6.50998H74.862V18.854H77.75V12.635C77.75 10.189 78.938 8.97798 80.732 8.97798C81.384 8.97798 81.827 9.04898 82.479 9.23498L83.107 6.60298C82.432 6.39298 81.826 6.27598 81.127 6.27598C79.683 6.27598 78.495 6.81198 77.656 7.69798H77.61V6.50998ZM83.363 12.729C83.363 8.86298 86.134 6.15998 90.001 6.15998C93.869 6.15998 96.593 9.02598 96.593 12.752V13.614H86.228C86.321 15.548 87.882 16.805 90.142 16.805C91.819 16.805 93.031 16.13 94.172 14.709L96.105 16.432C94.731 18.202 92.798 19.204 90.165 19.204C85.949 19.204 83.363 16.641 83.363 12.729ZM93.751 11.518C93.589 9.79498 92.074 8.55998 90.048 8.55998C88.021 8.55998 86.461 9.79398 86.275 11.518H93.751ZM101.508 6.50998H98.713L98.711 6.51098V18.856H101.599V12.125C101.599 10.121 103.205 8.74698 105.349 8.74698C107.493 8.74698 108.82 10.004 108.82 12.1V18.855H111.709V11.658C111.709 8.39598 109.334 6.15998 105.816 6.15998C104.14 6.15998 102.556 6.74198 101.554 7.78998H101.508V6.50998Z" fill="#242424"/>
</g>
<defs>
<clipPath id="clip0_2_2343">
<rect width="121" height="24" fill="white"/>
</clipPath>
</defs>
</svg>
