<svg width="121" height="26" viewBox="0 0 121 26" fill="none" xmlns="http://www.w3.org/2000/svg">
<g clip-path="url(#clip0_2_2184)">
<mask id="mask0_2_2184" style="mask-type:luminance" maskUnits="userSpaceOnUse" x="0" y="0" width="121" height="26">
<path d="M0.454956 0.36792H120.455V25.6309H0.454956V0.36792Z" fill="white"/>
</mask>
<g mask="url(#mask0_2_2184)">
<path fill-rule="evenodd" clip-rule="evenodd" d="M72.1379 5.04199H74.0319V9.27399H74.1589C74.6009 8.45299 75.6119 7.69399 77.0639 7.69399C79.3379 7.69399 80.7899 9.39999 80.7899 11.547V18.052H78.8959V11.926C78.8959 10.474 77.8219 9.52599 76.4959 9.52599C75.1059 9.52599 73.9689 10.6 73.9689 11.989V18.052H72.0749V5.04199H72.1379ZM32.4129 14.832L30.6449 15.21C30.8969 17.168 32.4129 18.305 34.6239 18.305C37.0239 18.305 38.6019 16.979 38.6019 15.021C38.6019 12.653 36.6489 12.302 34.9949 12.005C33.7809 11.787 32.7289 11.599 32.7289 10.663C32.7289 9.90499 33.4869 9.39999 34.5599 9.39999C35.6969 9.39999 36.5179 9.96799 36.7079 10.979L38.4129 10.474C38.1599 8.70499 36.5179 7.69399 34.6869 7.69399C32.4769 7.69399 30.9599 8.95799 30.9599 10.663C30.9599 12.933 32.7729 13.311 34.3619 13.642C35.6029 13.9 36.7079 14.131 36.7079 15.21C36.7079 16.031 36.0129 16.6 34.6869 16.6C33.4229 16.6 32.6019 16.032 32.4129 14.832ZM53.9489 7.94699H52.0539V18.052H53.9489V12.116C53.9489 10.6 55.0859 9.52599 56.4749 9.52599C57.7379 9.52599 58.8119 10.473 58.8119 11.926V18.052H60.7069V11.547C60.7069 9.39999 59.2539 7.69499 56.9799 7.69499C55.5279 7.69499 54.5169 8.45199 54.0749 9.27399H53.9489V7.94699ZM88.1169 7.69499C85.4009 7.69499 83.1269 9.77899 83.1269 13C83.1269 16.095 85.1479 18.305 88.1799 18.305C90.3899 18.305 92.1589 17.168 92.7899 15.147L90.9589 14.705C90.6429 15.968 89.4429 16.663 88.1789 16.663C86.2849 16.663 85.0849 15.463 85.0849 13.505H92.9799V12.873C92.9799 9.90499 91.2109 7.69499 88.1169 7.69499ZM88.1169 9.39999C89.6319 9.39999 90.8959 10.347 91.0219 12.052H85.1479C85.2749 10.537 86.5379 9.39999 88.1169 9.39999ZM94.8759 15.21L96.6439 14.831C96.8339 16.031 97.6539 16.6 98.9179 16.6C100.244 16.6 100.939 16.031 100.939 15.21C100.939 14.13 99.8339 13.9 98.5939 13.642C97.0039 13.311 95.1909 12.933 95.1909 10.663C95.1909 8.95799 96.7069 7.69499 98.9179 7.69499C100.749 7.69499 102.391 8.70499 102.644 10.473L100.939 10.979C100.749 9.96899 99.9289 9.39899 98.7909 9.39899C97.7179 9.39899 96.9599 9.90499 96.9599 10.663C96.9599 11.599 98.0119 11.787 99.2259 12.005C100.88 12.302 102.834 12.653 102.834 15.021C102.834 16.979 101.255 18.305 98.8539 18.305C96.6439 18.305 95.1279 17.168 94.8759 15.21ZM114.139 7.69499C111.36 7.69499 109.402 9.96799 109.402 13C109.402 16.095 111.486 18.305 114.202 18.305C116.193 18.305 117.019 17.202 117.406 16.686L117.423 16.663H117.549C117.549 17.547 118.181 18.053 119.002 18.053H120.391V16.284H119.949C119.634 16.284 119.444 16.158 119.444 15.842V7.94699H117.549V9.39999H117.423C117.044 8.83099 116.097 7.69499 114.139 7.69499ZM114.518 9.46299C116.223 9.46299 117.676 10.726 117.676 13C117.676 14.958 116.412 16.537 114.518 16.537C112.749 16.537 111.36 15.147 111.36 13C111.36 10.916 112.686 9.46299 114.518 9.46299ZM105.422 8.51599V18.052H107.317V7.69499L105.422 8.51599ZM47.9499 7.94699H50.0339L45.8659 19C45.2969 20.39 44.2859 20.958 42.7079 20.958H40.8759V19.189H42.7079C43.5279 19.189 43.9079 18.81 44.2239 18.116V18.052H43.7179L40.1179 7.94699H42.2019L44.9819 16.221H45.1079L47.9499 7.94699ZM107.381 5.04199H105.487V6.93699H107.381V5.04199ZM69.5499 7.94699V9.58999H66.6439V15.022C66.6439 15.969 67.0239 16.348 67.9079 16.348H69.4869V18.053H67.8449C65.9499 18.053 64.6869 17.169 64.6869 15.085V9.58999H62.8549V7.94699H64.8129V5.79999L66.5809 5.04199V7.94699H69.5499Z" fill="#121212"/>
<mask id="mask1_2_2184" style="mask-type:luminance" maskUnits="userSpaceOnUse" x="0" y="0" width="26" height="26">
<path d="M25.718 0.36792H0.454956V25.6319H25.718V0.36792Z" fill="white"/>
</mask>
<g mask="url(#mask1_2_2184)">
<path d="M5.54391 7.28092C5.16691 7.28092 4.72691 7.15592 4.47591 6.84092C4.16191 6.58992 4.03591 6.21292 3.97291 5.77292C3.90991 5.33292 4.09891 4.95592 4.34991 4.64192C4.4779 4.48207 4.64079 4.35364 4.82608 4.26646C5.01137 4.17927 5.21415 4.13564 5.41891 4.13892C7.93191 3.88792 10.2579 2.69392 12.0169 0.87092C12.1429 0.74492 12.3319 0.61992 12.5199 0.49392C12.7089 0.43092 12.8969 0.36792 13.0859 0.36792C13.2739 0.36792 13.4629 0.36792 13.7139 0.49392C13.9029 0.55692 14.0909 0.68292 14.2169 0.80792C14.3419 0.93392 14.4679 1.12292 14.5939 1.31092C14.6569 1.49992 14.7199 1.68792 14.7199 1.87692C14.7199 2.06492 14.7199 2.25392 14.5939 2.50492C14.5273 2.69354 14.4201 2.86525 14.2799 3.00792C12.0169 5.39592 8.99991 6.90392 5.73291 7.21792C5.66991 7.28092 5.60691 7.28092 5.54391 7.28092Z" fill="url(#paint0_radial_2_2184)"/>
<path d="M20.628 18.719C21.006 18.719 21.445 18.844 21.697 19.159C21.948 19.473 22.137 19.787 22.2 20.227C22.2 20.604 22.074 21.044 21.823 21.358C21.695 21.5178 21.5321 21.6463 21.3468 21.7335C21.1615 21.8206 20.9588 21.8643 20.754 21.861C18.24 22.112 15.915 23.306 14.155 25.129C14.03 25.254 13.841 25.38 13.653 25.506C13.464 25.569 13.276 25.632 13.087 25.632C12.899 25.632 12.71 25.632 12.459 25.506C12.2704 25.4393 12.0987 25.3321 11.956 25.192C11.8153 25.0361 11.6892 24.8677 11.579 24.689C11.516 24.5 11.453 24.312 11.453 24.123C11.453 23.935 11.453 23.746 11.579 23.495C11.642 23.306 11.767 23.118 11.893 22.992C14.155 20.604 17.172 19.096 20.44 18.782C20.566 18.719 20.628 18.719 20.628 18.719Z" fill="url(#paint1_radial_2_2184)"/>
<path d="M18.8049 5.45894C18.8049 5.08194 18.9299 4.64194 19.2449 4.38994C19.4959 4.07594 19.8729 3.94994 20.3129 3.88794C20.6899 3.88794 21.1299 4.01294 21.4439 4.26494C21.7579 4.51594 21.9469 4.89294 21.9469 5.33294C22.1979 7.84694 23.3919 10.1729 25.2149 11.9319C25.3409 12.0569 25.4659 12.2459 25.5919 12.4339C25.6549 12.6229 25.7179 12.8119 25.7179 12.9999C25.7179 13.1889 25.7179 13.3769 25.5919 13.6289C25.5252 13.8172 25.418 13.9885 25.2779 14.1309C25.1222 14.2718 24.9539 14.398 24.7749 14.5079C24.5859 14.5709 24.3979 14.6339 24.2089 14.6339C24.0209 14.6339 23.8319 14.6339 23.5809 14.5079C23.3924 14.4412 23.2207 14.3341 23.0779 14.1939C20.6899 11.9319 19.1819 8.91494 18.8679 5.64694C18.8049 5.58394 18.8049 5.52194 18.8049 5.45894Z" fill="url(#paint2_radial_2_2184)"/>
<path d="M7.36796 20.541C7.36796 20.918 7.24196 21.358 6.92796 21.61C6.67696 21.924 6.29996 22.05 5.85996 22.112C5.48296 22.112 5.04296 21.987 4.72896 21.735C4.5693 21.607 4.44099 21.4443 4.35382 21.2592C4.26664 21.0741 4.22291 20.8715 4.22596 20.667C3.97396 18.153 2.77996 15.827 0.957956 14.068C0.831956 13.943 0.705956 13.754 0.580956 13.566C0.517956 13.377 0.454956 13.188 0.454956 13C0.454956 12.811 0.454956 12.623 0.580956 12.371C0.643956 12.183 0.768956 11.994 0.894956 11.869C1.02096 11.743 1.20896 11.617 1.39796 11.492C1.58596 11.429 1.77496 11.366 1.96296 11.366C2.15196 11.366 2.33996 11.366 2.59196 11.492C2.77996 11.555 2.96896 11.68 3.09496 11.806C5.48296 14.068 6.99096 17.085 7.30496 20.353C7.33878 20.4106 7.36024 20.4746 7.36796 20.541Z" fill="url(#paint3_radial_2_2184)"/>
<path d="M11.83 3.636C11.517 3.385 11.391 2.945 11.328 2.568C11.328 2.191 11.454 1.751 11.705 1.5C11.833 1.34015 11.9959 1.21172 12.1812 1.12453C12.3665 1.03735 12.5693 0.993723 12.774 0.996998C13.214 0.996998 13.591 1.123 13.904 1.374C15.853 2.945 18.367 3.824 20.881 3.762C21.069 3.762 21.258 3.762 21.509 3.888C21.698 3.95 21.886 4.076 22.012 4.202C22.137 4.328 22.263 4.516 22.389 4.705C22.452 4.893 22.515 5.082 22.515 5.27C22.515 5.459 22.515 5.647 22.389 5.899C22.3222 6.08725 22.2151 6.25859 22.075 6.401C21.9191 6.54165 21.7508 6.66784 21.572 6.778C21.383 6.841 21.195 6.904 21.006 6.904C17.738 6.967 14.533 5.899 12.019 3.824L11.831 3.636H11.83Z" fill="url(#paint4_radial_2_2184)"/>
<path d="M14.4039 22.4269C14.7189 22.6769 14.8439 23.1169 14.9069 23.4949C14.9069 23.8719 14.7809 24.3119 14.5299 24.5629C14.4021 24.7226 14.2393 24.8509 14.0542 24.9381C13.8691 25.0253 13.6665 25.069 13.4619 25.0659C13.0849 25.0659 12.6449 24.9399 12.3309 24.6889C10.3819 23.1179 7.86795 22.2379 5.35495 22.3009C5.16595 22.3009 4.97795 22.3009 4.72595 22.1749C4.53734 22.1083 4.36564 22.0011 4.22295 21.8609C4.09795 21.7349 3.97295 21.5469 3.84595 21.3579C3.78395 21.1699 3.72095 20.9809 3.72095 20.7929C3.72095 20.6039 3.72095 20.4159 3.84595 20.1639C3.90895 19.9759 4.03495 19.7869 4.16095 19.6609C4.28595 19.5359 4.47495 19.4099 4.66295 19.2839C4.85195 19.2209 5.03995 19.1589 5.22895 19.1589C8.49695 19.0959 11.7019 20.1639 14.2159 22.2379L14.4039 22.4269Z" fill="url(#paint5_radial_2_2184)"/>
<path d="M22.5149 11.743C22.7659 11.429 23.2059 11.303 23.5829 11.241C23.9599 11.241 24.3999 11.366 24.6509 11.618C24.9659 11.868 25.1539 12.246 25.1539 12.686C25.1539 13.063 25.0289 13.503 24.7769 13.817C23.2059 15.765 22.3269 18.279 22.3889 20.793C22.3889 20.981 22.3889 21.17 22.2629 21.421C22.1963 21.6096 22.0891 21.7813 21.9489 21.924C21.8229 22.05 21.6349 22.175 21.4459 22.301C21.2579 22.364 21.0689 22.427 20.8809 22.427C20.6919 22.427 20.5039 22.427 20.2519 22.301C20.0637 22.2342 19.8923 22.127 19.7499 21.987C19.609 21.8311 19.4825 21.6627 19.3719 21.484C19.3099 21.295 19.2469 21.107 19.2469 20.918C19.1839 17.651 20.2519 14.445 22.3269 11.932C22.4519 11.806 22.4519 11.743 22.5149 11.743Z" fill="url(#paint6_radial_2_2184)"/>
<path d="M3.72301 14.32C3.47301 14.634 3.03301 14.76 2.65501 14.822C2.27801 14.822 1.83801 14.697 1.58701 14.445C1.42736 14.317 1.29905 14.1543 1.21187 13.9692C1.1247 13.7841 1.08096 13.5816 1.08401 13.377C1.08401 13 1.21001 12.56 1.46101 12.246C3.03201 10.298 3.91201 7.78399 3.84901 5.26999C3.84901 5.08199 3.84901 4.89299 3.97501 4.64199C4.03801 4.45299 4.16301 4.26499 4.28901 4.13899C4.41501 4.01299 4.60301 3.88799 4.79201 3.76199C4.98001 3.69899 5.16901 3.63599 5.35701 3.63599C5.54601 3.63599 5.73501 3.63599 5.98601 3.76199C6.17401 3.82499 6.36301 3.94999 6.48901 4.07599C6.61401 4.20199 6.74001 4.38999 6.86601 4.57899C6.92901 4.76699 6.99101 4.95599 6.99101 5.14399C7.05401 8.41199 5.98601 11.617 3.91201 14.131C3.78601 14.194 3.72301 14.257 3.72301 14.32Z" fill="url(#paint7_radial_2_2184)"/>
</g>
</g>
</g>
<defs>
<radialGradient id="paint0_radial_2_2184" cx="0" cy="0" r="1" gradientUnits="userSpaceOnUse" gradientTransform="translate(13.1899 1.94192) scale(9.771 9.76925)">
<stop offset="0.15"/>
<stop offset="1" stop-opacity="0.1"/>
</radialGradient>
<radialGradient id="paint1_radial_2_2184" cx="0" cy="0" r="1" gradientUnits="userSpaceOnUse" gradientTransform="translate(13.01 24.081) rotate(180) scale(9.771 9.76925)">
<stop offset="0.15"/>
<stop offset="1" stop-opacity="0.1"/>
</radialGradient>
<radialGradient id="paint2_radial_2_2184" cx="0" cy="0" r="1" gradientUnits="userSpaceOnUse" gradientTransform="translate(24.1699 13.1019) rotate(90) scale(9.76925 9.771)">
<stop offset="0.15"/>
<stop offset="1" stop-opacity="0.1"/>
</radialGradient>
<radialGradient id="paint3_radial_2_2184" cx="0" cy="0" r="1" gradientUnits="userSpaceOnUse" gradientTransform="translate(2.02896 12.92) rotate(-90) scale(9.76925 9.771)">
<stop offset="0.15"/>
<stop offset="1" stop-opacity="0.1"/>
</radialGradient>
<radialGradient id="paint4_radial_2_2184" cx="0" cy="0" r="1" gradientUnits="userSpaceOnUse" gradientTransform="translate(20.9891 5.24955) rotate(44.995) scale(9.77015)">
<stop offset="0.15"/>
<stop offset="1" stop-opacity="0.1"/>
</radialGradient>
<radialGradient id="paint5_radial_2_2184" cx="0" cy="0" r="1" gradientUnits="userSpaceOnUse" gradientTransform="translate(5.21963 20.7756) rotate(-135.006) scale(9.77015)">
<stop offset="0.15"/>
<stop offset="1" stop-opacity="0.1"/>
</radialGradient>
<radialGradient id="paint6_radial_2_2184" cx="0" cy="0" r="1" gradientUnits="userSpaceOnUse" gradientTransform="translate(20.8605 20.9165) rotate(135.006) scale(9.77015)">
<stop offset="0.15"/>
<stop offset="1" stop-opacity="0.1"/>
</radialGradient>
<radialGradient id="paint7_radial_2_2184" cx="0" cy="0" r="1" gradientUnits="userSpaceOnUse" gradientTransform="translate(5.3401 5.11569) rotate(-44.995) scale(9.77015)">
<stop offset="0.15"/>
<stop offset="1" stop-opacity="0.1"/>
</radialGradient>
<clipPath id="clip0_2_2184">
<rect width="121" height="26" fill="white"/>
</clipPath>
</defs>
</svg>
