<svg width="81" height="60" viewBox="0 0 81 60" fill="none" xmlns="http://www.w3.org/2000/svg">
<g clip-path="url(#clip0_2_2233)">
<mask id="mask0_2_2233" style="mask-type:luminance" maskUnits="userSpaceOnUse" x="0" y="0" width="81" height="60">
<path d="M0.455078 0H80.4551V60H0.455078V0Z" fill="white"/>
</mask>
<g mask="url(#mask0_2_2233)">
<path fill-rule="evenodd" clip-rule="evenodd" d="M58.8802 11.386V14.431C66.9952 13.259 71.2302 13.847 71.5802 15.721C71.9362 18.531 63.9342 21.93 62.4062 22.519C62.2862 22.635 62.1712 22.519 62.0542 22.403L62.0522 22.401C62.0446 22.3375 62.0513 22.2732 62.0717 22.2126C62.0921 22.1521 62.1258 22.0969 62.1702 22.051C66.4042 20.173 70.7602 17.474 70.1702 16.069C69.3462 14.427 61.2242 15.247 43.5772 19.587C22.5152 24.746 12.3972 24.043 11.5732 21.462C10.7492 19.117 17.3382 16.42 18.8682 15.836H18.9852V15.952C18.8072 16.047 18.5752 16.164 18.3082 16.301C16.2782 17.333 12.1382 19.438 12.8712 20.989C13.2272 22.049 16.6372 22.282 22.5192 21.579V14.897C22.5101 14.3782 22.6565 13.8686 22.9395 13.4337C23.2225 12.9989 23.6292 12.6587 24.1072 12.457C24.4245 12.3234 24.7654 12.2545 25.1097 12.2544C25.454 12.2542 25.7949 12.3229 26.1123 12.4563C26.4298 12.5897 26.7174 12.7851 26.9583 13.0311C27.1992 13.2771 27.3885 13.5688 27.5152 13.889C27.6432 14.209 27.7052 14.552 27.6982 14.897V20.878C28.8982 20.708 30.0982 20.475 31.3882 20.225C31.8682 20.131 32.3632 20.035 32.8742 19.939V7.16495C32.8927 6.48987 33.1735 5.84855 33.657 5.37712C34.1406 4.90569 34.7889 4.64126 35.4642 4.63995C36.14 4.63976 36.789 4.9039 37.2726 5.37591C37.7562 5.84793 38.036 6.49037 38.0522 7.16595V18.775L38.1252 18.758C39.6322 18.412 41.1392 18.066 42.7582 17.719C42.9019 17.6375 43.0651 17.5971 43.2302 17.602V2.58795C43.2385 1.90509 43.5142 1.2527 43.998 0.770744C44.4819 0.288787 45.1353 0.0156579 45.8182 0.00995257H45.8312C46.3525 -0.00186065 46.8656 0.141564 47.3052 0.422002C47.7448 0.702441 48.0912 1.10724 48.3002 1.58495C48.4402 1.90195 48.5152 2.24295 48.5232 2.58895V16.309L48.5832 16.298C50.3292 15.949 52.0722 15.601 53.5822 15.254V11.386C53.583 10.6831 53.8623 10.0092 54.3591 9.51193C54.8558 9.01466 55.5293 8.73454 56.2322 8.73295C56.5805 8.73269 56.9255 8.80115 57.2473 8.93442C57.5691 9.06769 57.8615 9.26315 58.1077 9.50959C58.3538 9.75604 58.549 10.0486 58.6819 10.3706C58.8148 10.6926 58.8829 11.0376 58.8822 11.386H58.8802ZM22.5462 26.774V28.74C22.5593 29.4113 22.8348 30.0508 23.3137 30.5215C23.7925 30.9921 24.4367 31.2565 25.1082 31.258C25.7801 31.2583 26.4252 30.9945 26.9043 30.5234C27.3835 30.0523 27.6582 29.4118 27.6692 28.74V26.193C25.9736 26.4808 24.2633 26.6754 22.5462 26.774ZM32.8892 25.324V32.471C32.8794 32.9781 33.02 33.4768 33.2931 33.9043C33.5663 34.3317 33.9598 34.6688 34.4242 34.873C34.8105 35.0428 35.2328 35.1145 35.6535 35.0817C36.0742 35.0489 36.4803 34.9127 36.8356 34.685C37.1909 34.4574 37.4844 34.1454 37.69 33.777C37.8957 33.4085 38.007 32.9949 38.0142 32.573V24.27C36.3287 24.7233 34.6177 25.0756 32.8902 25.325L32.8892 25.324ZM43.5862 23.127H43.2332V28.151C43.262 28.837 43.5545 29.4855 44.0497 29.9613C44.5448 30.4371 45.2045 30.7035 45.8912 30.705C46.5783 30.7052 47.2388 30.4394 47.7342 29.9632C48.2296 29.487 48.5213 28.8375 48.5482 28.151V21.959L47.4682 22.203C46.2442 22.477 44.9522 22.767 43.5862 23.129V23.127ZM53.5802 20.794V23.825C53.5947 24.3456 53.7629 24.8503 54.0636 25.2756C54.3643 25.7009 54.7841 26.0277 55.2702 26.215C55.5922 26.339 55.9362 26.398 56.2822 26.388H56.2952C56.9772 26.3865 57.6313 26.1171 58.1165 25.6378C58.6017 25.1586 58.8792 24.5079 58.8892 23.826V19.747C57.3542 20.095 55.5822 20.445 53.5722 20.795L53.5802 20.794ZM37.5722 58.958C36.8845 59.3191 36.1507 59.5849 35.3912 59.748C34.6292 59.91 33.8522 59.991 33.0732 59.99C32.2835 59.9983 31.4987 59.8649 30.7562 59.596C30.074 59.3488 29.4497 58.9642 28.9222 58.466C28.3993 57.9635 27.9889 57.3558 27.7182 56.683C27.1427 55.1784 27.1427 53.5145 27.7182 52.01C27.9889 51.3375 28.3993 50.7301 28.9222 50.228C29.4497 49.7294 30.0739 49.3445 30.7562 49.097C31.4986 48.8276 32.2834 48.6938 33.0732 48.702C33.8738 48.6951 34.6715 48.7997 35.4432 49.013C36.1532 49.213 36.8042 49.581 37.3442 50.083L35.6782 51.903C35.3695 51.5796 34.9988 51.3218 34.5882 51.145C34.1832 50.973 33.6782 50.888 33.0722 50.888C32.6022 50.881 32.1372 50.968 31.7022 51.145C31.3024 51.3111 30.9419 51.5594 30.6443 51.8738C30.3466 52.1882 30.1183 52.5617 29.9742 52.97C29.6614 53.8668 29.6614 54.8431 29.9742 55.74C30.1232 56.144 30.3522 56.514 30.6482 56.827C30.9442 57.14 31.3032 57.387 31.7012 57.552C32.1372 57.729 32.6032 57.817 33.0722 57.81C33.5232 57.82 33.9722 57.76 34.4062 57.635C34.7142 57.545 35.0132 57.426 35.2992 57.279V55.529H33.3762V53.345H37.5722V58.958ZM7.25219 51.115C7.58419 51.262 7.87719 51.485 8.10719 51.768L9.92519 50.28C9.70067 49.9947 9.43512 49.7443 9.13719 49.537C8.85242 49.3389 8.54488 49.1757 8.22119 49.051C7.90724 48.9313 7.58237 48.8425 7.25119 48.786C6.9384 48.7317 6.62164 48.7036 6.30419 48.702C5.5141 48.6937 4.72896 48.8275 3.98619 49.097C3.30475 49.3445 2.68126 49.7291 2.15419 50.227C1.63077 50.7292 1.22004 51.337 0.949193 52.01C0.373706 53.5145 0.373706 55.1784 0.949193 56.683C1.22019 57.356 1.63119 57.963 2.15419 58.465C2.68121 58.9629 3.30471 59.3475 3.98619 59.595C4.72848 59.8634 5.5129 59.9965 6.30219 59.988C7.04219 59.988 7.77519 59.834 8.45319 59.535C9.14873 59.2337 9.74695 58.7452 10.1812 58.124L8.21119 56.653C7.97819 57.008 7.66119 57.3 7.28819 57.502C6.89119 57.71 6.44819 57.814 6.00019 57.806C5.58923 57.8089 5.18277 57.7204 4.81019 57.547C4.44264 57.3752 4.11525 57.1282 3.84919 56.822C3.56886 56.5026 3.35017 56.134 3.20419 55.735C2.89143 54.8381 2.89143 53.8618 3.20419 52.965C3.34978 52.5602 3.57105 52.1869 3.85619 51.865C4.13516 51.5535 4.47745 51.3052 4.86013 51.1367C5.24282 50.9682 5.65708 50.8834 6.07519 50.888C6.47921 50.879 6.88048 50.9564 7.25219 51.115ZM13.2182 52.01C12.9227 52.7528 12.7766 53.5466 12.7882 54.346C12.7772 55.146 12.9222 55.94 13.2182 56.683C13.4882 57.356 13.8992 57.963 14.4222 58.465C14.9495 58.963 15.5734 59.3476 16.2552 59.595C17.7552 60.121 19.3902 60.121 20.8902 59.595C21.5725 59.3479 22.1967 58.9632 22.7242 58.465C23.2471 57.9628 23.6574 57.3554 23.9282 56.683C24.5037 55.1784 24.5037 53.5145 23.9282 52.01C23.6575 51.3374 23.2471 50.73 22.7242 50.228C22.1967 49.7294 21.5725 49.3445 20.8902 49.097C19.3899 48.5713 17.7555 48.5713 16.2552 49.097C15.5734 49.3444 14.9496 49.729 14.4222 50.227C13.8991 50.7293 13.4887 51.3371 13.2182 52.01ZM15.4802 55.735C15.3186 55.2899 15.2383 54.8194 15.2432 54.346C15.2396 53.8755 15.3198 53.4082 15.4802 52.966C15.6237 52.5578 15.8515 52.1845 16.1487 51.8701C16.4458 51.5557 16.8058 51.3072 17.2052 51.141C18.087 50.7978 19.0654 50.7978 19.9472 51.141C20.348 51.3069 20.7091 51.5557 21.0069 51.8711C21.3047 52.1865 21.5325 52.5613 21.6752 52.971C21.988 53.8678 21.988 54.8441 21.6752 55.741C21.5255 56.1447 21.296 56.5141 21.0002 56.827C20.7042 57.1379 20.3461 57.3832 19.9492 57.547C19.0676 57.8913 18.0888 57.8913 17.2072 57.547C16.809 57.3818 16.4502 57.1344 16.1542 56.821C15.8581 56.5081 15.6288 56.1393 15.4802 55.735ZM44.7542 48.976H41.5432V59.717H43.9032V52.07H43.9332L48.6142 59.717H51.7072V48.977H49.3442V56.44H49.3142L44.7542 48.976ZM55.7522 48.976H58.1142V59.717H55.7522V48.976ZM61.1732 51.07H64.2332V59.717H66.5972V51.07H69.6572V48.976H61.1732V51.07ZM72.8382 48.976H80.1252V51.16H75.2002V53.163H79.8502V55.348H75.2002V57.533H80.3962V59.717H72.8362V48.977L72.8382 48.976Z" fill="#121212"/>
</g>
</g>
<defs>
<clipPath id="clip0_2_2233">
<rect width="81" height="60" fill="white"/>
</clipPath>
</defs>
</svg>
